<svg width="24" height="24" viewBox="0 0 24 24" fill="none" xmlns="http://www.w3.org/2000/svg">
<path d="M20.7899 4.37974C20.7899 3.67474 20.2199 3.10474 19.5149 3.10474L7.49991 3.10474C6.79491 3.10474 6.22491 3.67474 6.22491 4.37974C6.22491 5.08474 6.79491 5.65474 7.49991 5.65474L16.4399 5.65474L3.37491 18.7197C2.87991 19.2147 2.87991 20.0247 3.37491 20.5197C3.62991 20.7747 3.94491 20.8947 4.27491 20.8947C4.60491 20.8947 4.93491 20.7747 5.17491 20.5197L18.2399 7.45474V16.3947C18.2399 17.0997 18.8099 17.6697 19.5149 17.6697C20.2199 17.6697 20.7899 17.0997 20.7899 16.3947L20.7899 4.37974Z" fill="#276C91"/>
</svg>
