<svg width="28" height="28" viewBox="0 0 28 28" fill="none" xmlns="http://www.w3.org/2000/svg">
<path d="M16.1881 8.16669C16.0302 8.46043 15.8884 8.76429 15.7594 9.07491C14.5348 8.88246 13.2875 8.88246 12.0596 9.07491C11.9339 8.76429 11.7889 8.46043 11.631 8.16669C10.4805 8.37264 9.35889 8.73391 8.29536 9.24373C6.18762 12.5154 5.61718 15.7026 5.90079 18.8459C7.13514 19.8014 8.51772 20.5307 9.99058 20.9967C10.3225 20.5307 10.6158 20.0344 10.8672 19.5178C10.3902 19.3321 9.92933 19.0992 9.48779 18.829C9.60384 18.7413 9.71664 18.6501 9.8262 18.5623C12.4141 19.8386 15.4114 19.8386 18.0025 18.5623C18.1121 18.6569 18.2249 18.748 18.3409 18.829C17.8994 19.1025 17.4386 19.3321 16.9583 19.5212C17.2097 20.0378 17.503 20.5341 17.8349 21C19.3078 20.5341 20.6904 19.8082 21.9247 18.8527C22.2599 15.2063 21.3511 12.0461 19.5237 9.2471C18.4634 8.73728 17.3419 8.37602 16.1913 8.17344L16.1881 8.16669ZM11.2281 16.9113C10.4321 16.9113 9.77141 16.155 9.77141 15.2198C9.77141 14.2846 10.4063 13.5249 11.2249 13.5249C12.0435 13.5249 12.6945 14.2879 12.6816 15.2198C12.6687 16.1516 12.0403 16.9113 11.2281 16.9113ZM16.5974 16.9113C15.7981 16.9113 15.1439 16.155 15.1439 15.2198C15.1439 14.2846 15.7788 13.5249 16.5974 13.5249C17.416 13.5249 18.0638 14.2879 18.0509 15.2198C18.038 16.1516 17.4095 16.9113 16.5974 16.9113Z" fill="white"/>
</svg>
