<svg width="409" height="409" viewBox="0 0 409 409" fill="none" xmlns="http://www.w3.org/2000/svg">
<g clip-path="url(#clip0_341_2570)">
<circle cx="204.464" cy="204.464" r="203.891" fill="#222323" stroke="white" stroke-width="1.14545"/>
<path d="M138.437 67.3186C87.4622 91.9078 52.2859 144.077 52.2859 204.462C52.2884 264.843 87.466 317 138.437 341.59V356.289C82.3232 331.856 42.3651 277.271 39.1076 212.971L38.8926 204.462C38.8926 136.496 79.8598 78.1121 138.437 52.6043V67.3186Z" fill="#F5F5F5"/>
<path d="M270.496 52.6197C329.067 78.1287 370.025 136.498 370.025 204.462L369.81 212.971C366.552 277.268 326.603 331.839 270.496 356.274V341.606C321.472 317.017 356.644 264.846 356.647 204.462C356.647 144.074 321.476 91.8908 270.496 67.3032V52.6197Z" fill="#F5F5F5"/>
<path d="M242.293 143.822C231.282 139.002 217.968 137.719 205.254 137.719H202.605C187.338 137.719 173.436 139.749 163.15 145.805C152.191 152.26 146.119 162.825 146.118 177.34V178.172C146.119 188.174 148.718 197.415 156.741 204.029C164.334 210.289 175.574 213.129 190.199 213.813L190.252 213.82L219.63 214.971C231.975 215.551 238.116 217.095 241.202 219.124C243.26 220.479 244.676 222.505 244.676 228.609V230.093C244.676 233.779 243.886 236.36 242.713 238.26C241.54 240.159 239.678 241.876 236.742 243.351C230.56 246.459 220.593 248.017 206.246 248.017C196.409 248.017 187.139 247.191 179.836 244.703C172.676 242.262 168.208 238.541 166.225 233.088L164.495 228.343H139.542L141.692 237.241C145.18 251.703 155.117 260.361 166.977 265.195C178.556 269.915 192.352 271.206 205.088 271.206H206.905C222.834 271.206 238.158 269.537 249.681 263.438C255.593 260.308 260.629 255.948 264.137 250.007C267.637 244.079 269.349 237.031 269.349 228.935V227.451C269.349 217.382 266.758 208.117 258.713 201.514C251.113 195.276 239.868 192.486 225.268 191.803H225.215L195.837 190.645C183.49 190.065 177.35 188.522 174.265 186.492C172.207 185.137 170.791 183.116 170.791 177.014V176.515C170.791 173.375 171.407 171.186 172.308 169.586C173.193 168.017 174.603 166.568 176.934 165.286C181.92 162.546 190.461 160.907 203.93 160.907C214.691 160.907 223.447 161.867 229.867 164.335C235.937 166.668 239.548 170.161 241.175 175.603L242.713 180.748H267.558L265.722 172.048C262.686 157.679 253.704 148.817 242.293 143.822Z" fill="#F5F5F5"/>
<path d="M237.726 59.049C225.631 61.4256 216.78 72.0174 216.576 84.5763V96.7101H192.385V84.5148C192.182 72.022 183.318 61.4271 171.22 59.049V34.4741C183.672 35.7417 195.209 41.625 203.536 50.97L204.473 52.0605L205.425 50.97C213.873 41.6 225.36 35.7643 237.726 34.4741V59.049Z" fill="#F5F5F5"/>
<path d="M237.726 349.877C225.631 347.501 216.78 336.909 216.576 324.35V312.216H192.385V324.412C192.182 336.904 183.318 347.499 171.22 349.877V374.452C183.673 373.185 195.209 367.301 203.536 357.956L204.473 356.866L205.426 357.956C213.873 367.326 225.36 373.162 237.726 374.452V349.877Z" fill="#F5F5F5"/>
</g>
<defs>
<clipPath id="clip0_341_2570">
<rect width="408.927" height="408.927" fill="white"/>
</clipPath>
</defs>
</svg>
