<svg width="1634" height="1431" viewBox="0 0 1634 1431" fill="none" xmlns="http://www.w3.org/2000/svg">
<path d="M1027.57 0C1225.13 0 1385.28 160.152 1385.28 357.71C1385.28 555.268 1225.13 715.42 1027.57 715.42H354.042C158.727 717.391 1 876.619 1 1072.4C1.00026 1269.41 160.705 1429.4 357.71 1429.4H1633.5V1430.4H357.71C160.152 1430.4 0.000264031 1269.96 0 1072.4C0 879.984 151.925 722.777 342.364 714.725V714.42H354.091C355.296 714.408 356.502 714.4 357.71 714.4H1030V714.411C1225.89 713.103 1384.28 553.904 1384.28 357.71C1384.28 160.704 1224.57 1 1027.57 1H1019.5V0H1027.57Z" fill="#BEBEBE"/>
</svg>
